<svg width="40" height="40" viewBox="0 0 40 40" fill="none" xmlns="http://www.w3.org/2000/svg">
<g clip-path="url(#clip0_5982_6313)">
<path d="M20.0004 28.3334C15.4054 28.3334 11.667 24.595 11.667 19.9999C11.667 15.4049 15.4054 11.6665 20.0004 11.6665C24.5955 11.6665 28.3339 15.4049 28.3339 19.9999C28.3339 24.595 24.5955 28.3334 20.0004 28.3334ZM20.0004 14.1665C16.7839 14.1665 14.167 16.7834 14.167 19.9999C14.167 23.2165 16.7839 25.8334 20.0004 25.8334C23.217 25.8334 25.8339 23.2165 25.8339 19.9999C25.8339 16.7834 23.217 14.1665 20.0004 14.1665Z" fill="#2BB162"/>
<path d="M19.9996 36.6665C10.8095 36.6665 3.33301 29.19 3.33301 19.9999C3.33301 10.8099 10.8095 3.33337 19.9996 3.33337C29.1896 3.33337 36.6661 10.8099 36.6661 19.9999C36.6661 29.19 29.1896 36.6665 19.9996 36.6665ZM19.9996 5.83337C12.188 5.83337 5.83301 12.1884 5.83301 19.9999C5.83301 27.8115 12.188 34.1665 19.9996 34.1665C27.8112 34.1665 34.1661 27.8115 34.1661 19.9999C34.1661 12.1884 27.8112 5.83337 19.9996 5.83337Z" fill="#2BB162"/>
<path d="M20 8.33344C19.31 8.33344 18.75 7.77344 18.75 7.08344V1.25C18.75 0.559998 19.31 0 20 0C20.69 0 21.25 0.559998 21.25 1.25V7.08344C21.25 7.77344 20.69 8.33344 20 8.33344Z" fill="#2BB162"/>
<path d="M20 39.9999C19.31 39.9999 18.75 39.4399 18.75 38.7499V32.9165C18.75 32.2265 19.31 31.6665 20 31.6665C20.69 31.6665 21.25 32.2265 21.25 32.9165V38.7499C21.25 39.4399 20.69 39.9999 20 39.9999Z" fill="#2BB162"/>
<path d="M7.08344 21.25H1.25C0.559998 21.25 0 20.69 0 20C0 19.31 0.559998 18.75 1.25 18.75H7.08344C7.77344 18.75 8.33344 19.31 8.33344 20C8.33344 20.69 7.77344 21.25 7.08344 21.25Z" fill="#2BB162"/>
<path d="M38.7504 21.25H32.917C32.227 21.25 31.667 20.69 31.667 20C31.667 19.31 32.227 18.75 32.917 18.75H38.7504C39.4404 18.75 40.0004 19.31 40.0004 20C40.0004 20.69 39.4404 21.25 38.7504 21.25Z" fill="#2BB162"/>
</g>
<defs>
<clipPath id="clip0_5982_6313">
<rect width="40" height="40" fill="white"/>
</clipPath>
</defs>
</svg>
